<svg xmlns="http://www.w3.org/2000/svg" xmlns:xlink="http://www.w3.org/1999/xlink" width="96" height="96" viewBox="0 0 96 96">
  <defs>
    <filter id="netbeans-a" width="129.3%" height="129.3%" x="-14.6%" y="-14.6%" filterUnits="objectBoundingBox">
      <feOffset dy="2" in="SourceAlpha" result="shadowOffsetOuter1"/>
      <feGaussianBlur in="shadowOffsetOuter1" result="shadowBlurOuter1" stdDeviation="2"/>
      <feComposite in="shadowBlurOuter1" in2="SourceAlpha" operator="out" result="shadowBlurOuter1"/>
      <feColorMatrix in="shadowBlurOuter1" result="shadowMatrixOuter1" values="0 0 0 0 0   0 0 0 0 0   0 0 0 0 0  0 0 0 0.2 0"/>
      <feMerge>
        <feMergeNode in="shadowMatrixOuter1"/>
        <feMergeNode in="SourceGraphic"/>
      </feMerge>
    </filter>
    <linearGradient id="netbeans-b" x1="91.052%" x2="-13.282%" y1="72.268%" y2="43.672%">
      <stop offset="0%" stop-color="#D21172"/>
      <stop offset="100%" stop-color="#A6073E"/>
    </linearGradient>
    <linearGradient id="netbeans-c" x1="26.901%" x2="91.321%" y1="39.993%" y2="90.244%">
      <stop offset="0%" stop-color="#2D8DCD"/>
      <stop offset="100%" stop-color="#1D69C7"/>
    </linearGradient>
    <linearGradient id="netbeans-d" x1="87.226%" x2="32.063%" y1="3.334%" y2="60.168%">
      <stop offset="0%" stop-color="#C7DD5A"/>
      <stop offset="100%" stop-color="#8CD142"/>
    </linearGradient>
    <linearGradient id="netbeans-e" x1="21.589%" x2="88.788%" y1="44.047%" y2="97.025%">
      <stop offset="0%" stop-color="#3184DA"/>
      <stop offset="100%" stop-color="#1D57E1"/>
    </linearGradient>
    <linearGradient id="netbeans-f" x1="85.993%" x2="34.985%" y1="87.07%" y2="39.135%">
      <stop offset="0%" stop-color="#E45399"/>
      <stop offset="100%" stop-color="#E8205F"/>
    </linearGradient>
    <linearGradient id="netbeans-g" x1="53.008%" x2="80.586%" y1="82.132%" y2="3.532%">
      <stop offset="0%" stop-color="#CEE369"/>
      <stop offset="100%" stop-color="#A1C238"/>
    </linearGradient>
    <path id="netbeans-h" d="M2.82000636,10.737496 L16.8200064,1.98749603 C18.7656281,0.771482457 21.2343719,0.771482457 23.1799936,1.98749603 L37.1799936,10.737496 C38.9342818,11.8339261 40,13.7567457 40,15.8254858 L40,32.0288368 C40,34.1762132 38.8524008,36.1598695 36.9908267,37.2302746 L22.9908267,45.2802746 C21.1390884,46.3450242 18.8609116,46.3450242 17.0091733,45.2802746 L3.00917325,37.2302746 C1.14759916,36.1598695 3.81569144e-15,34.1762132 0,32.0288368 L0,15.8254858 C-1.17205281e-15,13.7567457 1.06571818,11.8339261 2.82000636,10.737496 Z"/>
  </defs>
  <g fill="none" fill-rule="evenodd" filter="url(#netbeans-a)" transform="translate(7 7)">
    <path fill="#D8D8D8" d="M47.31,3.96410162 L70.3840289,17.2858984 C74.0968418,19.4294919 76.3840289,23.3910162 76.3840289,27.6782032 L76.3840289,54.3217968 C76.3840289,58.6089838 74.0968418,62.5705081 70.3840289,64.7141016 L47.31,78.0358984 C43.5971871,80.1794919 39.0228129,80.1794919 35.31,78.0358984 L12.2359711,64.7141016 C8.52315823,62.5705081 6.23597115,58.6089838 6.23597115,54.3217968 L6.23597115,27.6782032 C6.23597115,23.3910162 8.52315823,19.4294919 12.2359711,17.2858984 L35.31,3.96410162 C39.0228129,1.82050808 43.5971871,1.82050808 47.31,3.96410162 Z"/>
    <g transform="translate(6 2)">
      <path fill="url(#netbeans-b)" d="M1.8625213,19.6375967 L35.3053049,39 L1.85343685,58.3467826 C0.808397298,56.5467245 0.231276069,54.4753475 0.231276069,52.3217968 L0.231276069,25.6782032 C0.231276069,23.5184203 0.811742384,21.4412875 1.8625213,19.6375967 Z"/>
      <path fill="url(#netbeans-c)" d="M70.3793338,25.6782032 L70.3793338,52.3217968 C70.3793338,54.4251631 69.8287966,56.4501407 68.8294674,58.220502 L35.3053049,39 L68.7480885,19.6375967 C69.7988675,21.4412875 70.3793338,23.5184203 70.3793338,25.6782032 Z"/>
      <path fill="url(#netbeans-d)" d="M41.3053049,1.96410162 L64.3793338,15.2858984 C66.2378098,16.35889 67.7390843,17.8873782 68.7751014,19.684205 L35,39.5 L35.0003298,0.360277862 C37.1732493,0.305101897 39.3578012,0.839709814 41.3053049,1.96410162 Z"/>
      <path fill="url(#netbeans-e)" d="M35,39 L69.0498836,57.8117663 C68.0130578,59.8267092 66.4092721,61.5421162 64.3793338,62.7141016 L41.3053049,76.0358984 C39.3578012,77.1602902 37.1732493,77.6948981 35.0003298,77.6397221 L35,39 Z"/>
      <path fill="url(#netbeans-f)" d="M35,38.5 L35.0006886,77.6397312 C33.0309312,77.589773 31.0707213,77.055162 29.3053049,76.0358984 L6.23127607,62.7141016 C4.34658545,61.625975 2.82924443,60.0694112 1.79194605,58.2396004 L35,38.5 Z"/>
      <path fill="url(#netbeans-g)" d="M34.9996884,0.360294166 L35,39 L1.80392738,19.739314 C2.84091316,17.9186309 4.35382896,16.369843 6.23127607,15.2858984 L29.3053049,1.96410162 C31.0704225,0.945010505 33.0302676,0.410408022 34.9996884,0.360294166 Z"/>
    </g>
    <g transform="translate(21.305 17)">
      <mask id="netbeans-i" fill="#fff">
        <use xlink:href="#netbeans-h"/>
      </mask>
      <use fill="#EBEBEB" xlink:href="#netbeans-h"/>
      <path fill="#CEDAE6" d="M40,15.8254858 L40,32.0288368 C40,34.1762132 38.8524008,36.1598695 36.9908267,37.2302746 L22.9908267,45.2802746 C22.0649575,45.8126494 21.0324788,46.0788368 20,46.0788368 L20,26.3141088 C20,24.8825246 20.7650661,23.560087 22.0061155,22.8464836 L39.2544647,12.9288324 C39.735987,13.8022983 40,14.7958174 40,15.8254858 Z" mask="url(#netbeans-i)"/>
      <path fill="#F1F6E2" d="M0,12.5 L20,0 L40,12.5 L22.4923556,22.5668955 C20.9492403,23.4541868 19.0507597,23.4541868 17.5076444,22.5668955 L0,12.5 L0,12.5 Z" mask="url(#netbeans-i)"/>
      <path fill="#FEFEFF" d="M0,12.5 L0,35.5 L20,47 L20,26.3141088 C20,24.8825246 19.2349339,23.560087 17.9938845,22.8464836 L0,12.5 L0,12.5 Z" mask="url(#netbeans-i)"/>
    </g>
  </g>
</svg>
